<mxfile host="app.diagrams.net" modified="2024-04-18T19:22:14.244Z" agent="Mozilla/5.0 (Macintosh; Intel Mac OS X 10_15_7) AppleWebKit/537.36 (KHTML, like Gecko) Chrome/124.0.0.0 Safari/537.36" version="24.2.5" etag="gXUtdKw84Jv8xxvELSOe" type="github">
  <diagram name="PÃ¡gina-1" id="hyANTCJ6QxDP82kSPv6y">
    <mxGraphModel>
      <root>
        <mxCell id="0" />
        <mxCell id="1" parent="0" />
      </root>
    </mxGraphModel>
  </diagram>
</mxfile>
